<mxfile host="app.diagrams.net" modified="2024-06-29T17:36:00.877Z" agent="Mozilla/5.0 (X11; Linux x86_64; rv:122.0) Gecko/20100101 Firefox/122.0" etag="Ccj3EFbifuAmzOkw8_k5" version="24.6.4" type="device">
  <diagram name="Page-1" id="EpCJU1YveZ3RhXaQQMEF">
    <mxGraphModel dx="989" dy="530" grid="1" gridSize="10" guides="1" tooltips="1" connect="1" arrows="1" fold="1" page="1" pageScale="1" pageWidth="850" pageHeight="1100" math="0" shadow="0">
      <root>
        <mxCell id="0" />
        <mxCell id="1" parent="0" />
        <mxCell id="hRB_K1j5NB3Ysuigo1ez-12" value="" style="rounded=0;whiteSpace=wrap;html=1;" vertex="1" parent="1">
          <mxGeometry x="300" y="70" width="200" height="220" as="geometry" />
        </mxCell>
        <mxCell id="hRB_K1j5NB3Ysuigo1ez-2" value="&lt;div&gt;&lt;font style=&quot;font-size: 14px;&quot;&gt;Clean dynamic data&lt;/font&gt;&lt;/div&gt;" style="rounded=0;whiteSpace=wrap;html=1;" vertex="1" parent="1">
          <mxGeometry x="60" y="70" width="170" height="60" as="geometry" />
        </mxCell>
        <mxCell id="hRB_K1j5NB3Ysuigo1ez-3" value="&lt;font style=&quot;font-size: 14px;&quot;&gt;Static Data&lt;/font&gt;" style="rounded=0;whiteSpace=wrap;html=1;" vertex="1" parent="1">
          <mxGeometry x="500" y="320" width="170" height="60" as="geometry" />
        </mxCell>
        <mxCell id="hRB_K1j5NB3Ysuigo1ez-4" value="&lt;div&gt;&lt;font style=&quot;font-size: 14px;&quot;&gt;Clean dynamic data filtered by nearest point&lt;/font&gt;&lt;/div&gt;&lt;div&gt;&lt;font style=&quot;font-size: 14px;&quot;&gt;and date&lt;br&gt;&lt;/font&gt;&lt;/div&gt;" style="rounded=0;whiteSpace=wrap;html=1;" vertex="1" parent="1">
          <mxGeometry x="635" y="117.5" width="170" height="60" as="geometry" />
        </mxCell>
        <mxCell id="hRB_K1j5NB3Ysuigo1ez-7" value="&lt;font style=&quot;font-size: 14px;&quot;&gt;Search nearest point by coord&lt;/font&gt;" style="text;html=1;align=center;verticalAlign=middle;whiteSpace=wrap;rounded=0;strokeColor=none;" vertex="1" parent="1">
          <mxGeometry x="590" y="220" width="120" height="30" as="geometry" />
        </mxCell>
        <mxCell id="hRB_K1j5NB3Ysuigo1ez-9" value="&lt;font style=&quot;font-size: 14px;&quot;&gt;Dynamic data by date¹&lt;/font&gt;" style="rounded=0;whiteSpace=wrap;html=1;" vertex="1" parent="1">
          <mxGeometry x="320" y="125" width="160" height="45" as="geometry" />
        </mxCell>
        <mxCell id="hRB_K1j5NB3Ysuigo1ez-10" value="&lt;font style=&quot;font-size: 14px;&quot;&gt;Dynamic data by date²&lt;/font&gt;" style="rounded=0;whiteSpace=wrap;html=1;" vertex="1" parent="1">
          <mxGeometry x="320" y="180" width="160" height="45" as="geometry" />
        </mxCell>
        <mxCell id="hRB_K1j5NB3Ysuigo1ez-11" value="&lt;font style=&quot;font-size: 14px;&quot;&gt;Dynamic data by date³&lt;/font&gt;" style="rounded=0;whiteSpace=wrap;html=1;" vertex="1" parent="1">
          <mxGeometry x="320" y="235" width="160" height="45" as="geometry" />
        </mxCell>
        <mxCell id="hRB_K1j5NB3Ysuigo1ez-13" value="&lt;font style=&quot;font-size: 14px;&quot;&gt;Data by date&lt;/font&gt;" style="text;html=1;align=center;verticalAlign=middle;whiteSpace=wrap;rounded=0;strokeColor=none;" vertex="1" parent="1">
          <mxGeometry x="340" y="80" width="120" height="30" as="geometry" />
        </mxCell>
        <mxCell id="hRB_K1j5NB3Ysuigo1ez-17" value="&lt;font style=&quot;font-size: 14px;&quot;&gt;Filter by date&lt;/font&gt;" style="text;html=1;align=center;verticalAlign=middle;whiteSpace=wrap;rounded=0;strokeColor=none;" vertex="1" parent="1">
          <mxGeometry x="340" y="30" width="120" height="30" as="geometry" />
        </mxCell>
        <mxCell id="hRB_K1j5NB3Ysuigo1ez-18" value="(Copernicus)" style="text;html=1;align=center;verticalAlign=middle;whiteSpace=wrap;rounded=0;strokeColor=none;" vertex="1" parent="1">
          <mxGeometry x="85" y="40" width="120" height="30" as="geometry" />
        </mxCell>
        <mxCell id="hRB_K1j5NB3Ysuigo1ez-19" value="&lt;div&gt;(fish farm)&lt;/div&gt;" style="text;html=1;align=center;verticalAlign=middle;whiteSpace=wrap;rounded=0;strokeColor=none;" vertex="1" parent="1">
          <mxGeometry x="525" y="380" width="120" height="30" as="geometry" />
        </mxCell>
        <mxCell id="hRB_K1j5NB3Ysuigo1ez-21" value="" style="endArrow=classic;html=1;rounded=0;exitX=1;exitY=0.5;exitDx=0;exitDy=0;entryX=0;entryY=0.5;entryDx=0;entryDy=0;" edge="1" parent="1" source="hRB_K1j5NB3Ysuigo1ez-2" target="hRB_K1j5NB3Ysuigo1ez-9">
          <mxGeometry width="50" height="50" relative="1" as="geometry">
            <mxPoint x="400" y="250" as="sourcePoint" />
            <mxPoint x="450" y="200" as="targetPoint" />
          </mxGeometry>
        </mxCell>
        <mxCell id="hRB_K1j5NB3Ysuigo1ez-22" value="" style="endArrow=classic;html=1;rounded=0;exitX=1;exitY=0.5;exitDx=0;exitDy=0;entryX=0;entryY=0.5;entryDx=0;entryDy=0;" edge="1" parent="1" source="hRB_K1j5NB3Ysuigo1ez-2" target="hRB_K1j5NB3Ysuigo1ez-10">
          <mxGeometry width="50" height="50" relative="1" as="geometry">
            <mxPoint x="400" y="250" as="sourcePoint" />
            <mxPoint x="450" y="200" as="targetPoint" />
          </mxGeometry>
        </mxCell>
        <mxCell id="hRB_K1j5NB3Ysuigo1ez-23" value="" style="endArrow=classic;html=1;rounded=0;exitX=1;exitY=0.5;exitDx=0;exitDy=0;entryX=0;entryY=0.5;entryDx=0;entryDy=0;" edge="1" parent="1" source="hRB_K1j5NB3Ysuigo1ez-2" target="hRB_K1j5NB3Ysuigo1ez-11">
          <mxGeometry width="50" height="50" relative="1" as="geometry">
            <mxPoint x="400" y="250" as="sourcePoint" />
            <mxPoint x="450" y="200" as="targetPoint" />
          </mxGeometry>
        </mxCell>
        <mxCell id="hRB_K1j5NB3Ysuigo1ez-30" value="" style="endArrow=classic;html=1;rounded=0;entryX=0;entryY=0.5;entryDx=0;entryDy=0;exitX=1;exitY=0.5;exitDx=0;exitDy=0;" edge="1" parent="1" source="hRB_K1j5NB3Ysuigo1ez-9" target="hRB_K1j5NB3Ysuigo1ez-4">
          <mxGeometry width="50" height="50" relative="1" as="geometry">
            <mxPoint x="400" y="250" as="sourcePoint" />
            <mxPoint x="450" y="200" as="targetPoint" />
          </mxGeometry>
        </mxCell>
        <mxCell id="hRB_K1j5NB3Ysuigo1ez-31" value="" style="endArrow=none;dashed=1;html=1;dashPattern=1 3;strokeWidth=2;rounded=0;exitX=0.5;exitY=0;exitDx=0;exitDy=0;" edge="1" parent="1" source="hRB_K1j5NB3Ysuigo1ez-3">
          <mxGeometry width="50" height="50" relative="1" as="geometry">
            <mxPoint x="400" y="250" as="sourcePoint" />
            <mxPoint x="585" y="150" as="targetPoint" />
          </mxGeometry>
        </mxCell>
      </root>
    </mxGraphModel>
  </diagram>
</mxfile>
